<svg width="32" height="32" viewBox="0 0 32 32" fill="none" xmlns="http://www.w3.org/2000/svg">
<path d="M28.9107 13.0575L27.057 6.57627C26.9816 6.30417 26.8191 6.06429 26.5943 5.89338C26.3696 5.72247 26.095 5.62995 25.8126 5.63H6.18739C5.60408 5.63 5.09854 6.01888 4.94299 6.57627L3.08935 13.0575C2.85603 13.8742 3.47823 14.7038 4.33375 14.7038H7.1855L5.63 26.37H8.2225L9.09099 19.8888H22.922L23.7775 26.37H26.37L24.8145 14.7038H27.6663C28.5218 14.7038 29.144 13.8742 28.9107 13.0575ZM9.42801 17.2963L9.778 14.7038H22.222L22.572 17.2963H9.42801ZM6.05776 12.1113L7.17254 8.2225H24.8404L25.9552 12.1113H6.05776Z" fill="#C6C8C6"/>
</svg>
