<svg width="33" height="37" viewBox="0 0 33 37" fill="none" xmlns="http://www.w3.org/2000/svg">
<g filter="url(#filter0_d_822_910)">
<path d="M26.8352 27.1836V24.591C26.8352 23.2158 26.2889 21.897 25.3165 20.9246C24.3441 19.9521 23.0252 19.4059 21.65 19.4059H11.2797C9.90447 19.4059 8.5856 19.9521 7.61319 20.9246C6.64078 21.897 6.09448 23.2158 6.09448 24.591V27.1836" stroke="#C7C9C7" stroke-width="2.59259" stroke-linecap="round" stroke-linejoin="round"/>
<g filter="url(#filter1_d_822_910)">
<path d="M16.4648 14.2207C19.3285 14.2207 21.65 11.8992 21.65 9.0355C21.65 6.1718 19.3285 3.85031 16.4648 3.85031C13.6011 3.85031 11.2797 6.1718 11.2797 9.0355C11.2797 11.8992 13.6011 14.2207 16.4648 14.2207Z" stroke="#C7C9C7" stroke-width="2.59259" stroke-linecap="round" stroke-linejoin="round" shape-rendering="crispEdges"/>
</g>
</g>
<defs>
<filter id="filter0_d_822_910" x="-3.55554" y="0.444443" width="39.1111" height="39.1111" filterUnits="userSpaceOnUse" color-interpolation-filters="sRGB">
<feFlood flood-opacity="0" result="BackgroundImageFix"/>
<feColorMatrix in="SourceAlpha" type="matrix" values="0 0 0 0 0 0 0 0 0 0 0 0 0 0 0 0 0 0 127 0" result="hardAlpha"/>
<feOffset dy="4"/>
<feGaussianBlur stdDeviation="2"/>
<feComposite in2="hardAlpha" operator="out"/>
<feColorMatrix type="matrix" values="0 0 0 0 0 0 0 0 0 0 0 0 0 0 0 0 0 0 0.25 0"/>
<feBlend mode="normal" in2="BackgroundImageFix" result="effect1_dropShadow_822_910"/>
<feBlend mode="normal" in="SourceGraphic" in2="effect1_dropShadow_822_910" result="shape"/>
</filter>
<filter id="filter1_d_822_910" x="5.9834" y="2.55402" width="20.9629" height="20.963" filterUnits="userSpaceOnUse" color-interpolation-filters="sRGB">
<feFlood flood-opacity="0" result="BackgroundImageFix"/>
<feColorMatrix in="SourceAlpha" type="matrix" values="0 0 0 0 0 0 0 0 0 0 0 0 0 0 0 0 0 0 127 0" result="hardAlpha"/>
<feOffset dy="4"/>
<feGaussianBlur stdDeviation="2"/>
<feComposite in2="hardAlpha" operator="out"/>
<feColorMatrix type="matrix" values="0 0 0 0 0 0 0 0 0 0 0 0 0 0 0 0 0 0 0.25 0"/>
<feBlend mode="normal" in2="BackgroundImageFix" result="effect1_dropShadow_822_910"/>
<feBlend mode="normal" in="SourceGraphic" in2="effect1_dropShadow_822_910" result="shape"/>
</filter>
</defs>
</svg>
