<svg width="26" height="22" viewBox="0 0 26 22" fill="none" xmlns="http://www.w3.org/2000/svg">
<path fill-rule="evenodd" clip-rule="evenodd" d="M11.6441 5.83707C11.6441 2.61333 14.2575 0 17.4812 0C19.374 0 20.8841 0.894133 21.8959 2.19333C22.966 1.97399 23.9919 1.57713 24.9311 1.0192C24.5674 2.15078 23.8061 3.11232 22.7881 3.72587L22.7919 3.73147C23.7583 3.6147 24.7019 3.35489 25.5919 2.96053L25.59 2.96427C24.9609 3.90693 24.1713 4.7376 23.2604 5.4152C23.3089 5.7456 23.3351 6.076 23.3351 6.40453C23.3351 13.2869 18.0916 21.2912 8.44841 21.2912C5.60493 21.2937 2.82089 20.4771 0.42921 18.9392C0.316613 18.8669 0.220868 18.7713 0.148466 18.6588C0.0760646 18.5463 0.0286986 18.4195 0.00957916 18.2871C-0.00954033 18.1547 3.35907e-05 18.0197 0.0376519 17.8913C0.0752702 17.7629 0.140053 17.6441 0.22761 17.5429C0.310872 17.4045 0.432283 17.293 0.577295 17.2218C0.722307 17.1507 0.884768 17.1228 1.04521 17.1416C2.75508 17.3432 4.46121 17.1341 5.96761 16.4771C5.2246 16.1488 4.55942 15.6671 4.01573 15.0635C3.47205 14.46 3.06215 13.7483 2.81294 12.9752C2.76687 12.8314 2.7604 12.6778 2.79424 12.5307C2.82807 12.3835 2.90095 12.2482 3.00521 12.1389C2.39175 11.6006 1.90036 10.9374 1.56395 10.1937C1.22754 9.45006 1.05386 8.64313 1.05454 7.82693V7.76347C1.0545 7.56819 1.1225 7.37899 1.24684 7.22841C1.37119 7.07783 1.54411 6.97529 1.73588 6.9384C1.31267 6.12169 1.09241 5.21505 1.09374 4.2952C1.09374 3.4216 1.09934 2.32027 1.71348 1.3272C1.77909 1.222 1.86718 1.13262 1.97143 1.06549C2.07567 0.998361 2.19349 0.955141 2.31641 0.938933C2.49465 0.882718 2.68567 0.88131 2.86472 0.934893C3.04377 0.988475 3.20262 1.09458 3.32068 1.23947C5.40149 3.79921 8.37765 5.47213 11.646 5.9192V5.83707H11.6441ZM8.44841 19.4245C7.02021 19.4256 5.60167 19.1903 4.25028 18.7283C5.87575 18.4601 7.40894 17.7917 8.71161 16.7832C8.84813 16.6761 8.94814 16.5294 8.9979 16.3631C9.04765 16.1969 9.04471 16.0194 8.98947 15.8549C8.93423 15.6904 8.82941 15.547 8.68941 15.4445C8.54941 15.342 8.3811 15.2854 8.20761 15.2824C7.58268 15.2712 6.96878 15.1157 6.41381 14.8282C5.85883 14.5407 5.37777 14.1288 5.00814 13.6248C5.36281 13.5968 5.71001 13.5352 6.04601 13.4456C6.22917 13.3966 6.39038 13.2871 6.50342 13.1349C6.61646 12.9827 6.67469 12.7968 6.66863 12.6073C6.66258 12.4178 6.59259 12.2359 6.47006 12.0912C6.34753 11.9465 6.17966 11.8476 5.99374 11.8104C5.28358 11.6665 4.62472 11.3356 4.08523 10.8519C3.54573 10.3682 3.14518 9.74924 2.92494 9.05893C3.29828 9.14853 3.68841 9.20267 4.08788 9.21573C4.27043 9.22188 4.45 9.16835 4.5994 9.06326C4.7488 8.95818 4.85987 8.80726 4.91579 8.63338C4.97171 8.4595 4.96943 8.27213 4.9093 8.09966C4.84916 7.92719 4.73445 7.77902 4.58254 7.6776C4.02553 7.30652 3.5688 6.8036 3.25292 6.21353C2.93705 5.62346 2.7718 4.9645 2.77188 4.2952C2.77188 3.9816 2.77748 3.70347 2.79614 3.4496C5.40812 6.11518 8.92853 7.69876 12.6559 7.8848C12.7998 7.89212 12.9435 7.86601 13.0756 7.80851C13.2078 7.75101 13.3248 7.6637 13.4176 7.5534C13.5104 7.4431 13.5763 7.31281 13.6103 7.17276C13.6443 7.0327 13.6454 6.88668 13.6135 6.74613C13.4764 6.16327 13.4729 5.55695 13.6033 4.97254C13.7336 4.38814 13.9945 3.84079 14.3663 3.37147C14.7382 2.90214 15.2113 2.523 15.7504 2.26241C16.2895 2.00181 16.8806 1.86653 17.4793 1.86667C19.7828 1.86667 21.4665 4.00027 21.4665 6.4064C21.4665 12.4843 16.8465 19.4245 8.44841 19.4245Z" fill="black"/>
</svg>
