<svg width="24" height="24" viewBox="0 0 24 24" fill="none" xmlns="http://www.w3.org/2000/svg">
<path d="M11.6667 8.77333C11.0944 8.77333 10.535 8.94302 10.0592 9.26095C9.58341 9.57887 9.21256 10.0307 8.99357 10.5594C8.77458 11.0881 8.71729 11.6699 8.82893 12.2311C8.94057 12.7924 9.21613 13.3079 9.62077 13.7126C10.0254 14.1172 10.541 14.3928 11.1022 14.5044C11.6635 14.616 12.2452 14.5587 12.7739 14.3398C13.3026 14.1208 13.7545 13.7499 14.0724 13.2741C14.3903 12.7983 14.56 12.2389 14.56 11.6667C14.56 11.2867 14.4852 10.9105 14.3398 10.5594C14.1944 10.2084 13.9812 9.88944 13.7126 9.62077C13.4439 9.3521 13.1249 9.13898 12.7739 8.99357C12.4229 8.84817 12.0466 8.77333 11.6667 8.77333ZM23.2517 5.915C23.2455 5.01405 23.0796 4.12133 22.7617 3.27833C22.5275 2.66147 22.1652 2.10128 21.6986 1.63472C21.2321 1.16816 20.6719 0.805837 20.055 0.571667C19.212 0.253708 18.3193 0.0878044 17.4183 0.0816666C15.9133 -7.82311e-08 15.47 0 11.6667 0C7.86333 0 7.42 -7.82311e-08 5.915 0.0816666C5.01405 0.0878044 4.12133 0.253708 3.27833 0.571667C2.66147 0.805837 2.10128 1.16816 1.63472 1.63472C1.16816 2.10128 0.805837 2.66147 0.571667 3.27833C0.253708 4.12133 0.0878044 5.01405 0.0816666 5.915C-7.82311e-08 7.42 0 7.86333 0 11.6667C0 15.47 -7.82311e-08 15.9133 0.0816666 17.4183C0.0942245 18.3225 0.259903 19.2179 0.571667 20.0667C0.804799 20.6807 1.16682 21.2377 1.63333 21.7C2.09789 22.1694 2.65929 22.5317 3.27833 22.7617C4.12133 23.0796 5.01405 23.2455 5.915 23.2517C7.42 23.3333 7.86333 23.3333 11.6667 23.3333C15.47 23.3333 15.9133 23.3333 17.4183 23.2517C18.3193 23.2455 19.212 23.0796 20.055 22.7617C20.674 22.5317 21.2354 22.1694 21.7 21.7C22.1665 21.2377 22.5285 20.6807 22.7617 20.0667C23.0793 19.2195 23.2452 18.323 23.2517 17.4183C23.3333 15.9133 23.3333 15.47 23.3333 11.6667C23.3333 7.86333 23.3333 7.42 23.2517 5.915ZM20.2883 15.2483C20.2509 15.9683 20.0972 16.6774 19.8333 17.3483C19.6068 17.908 19.2701 18.4163 18.8432 18.8432C18.4163 19.2701 17.908 19.6068 17.3483 19.8333C16.6711 20.0825 15.958 20.2204 15.2367 20.2417H8.09667C7.37535 20.2204 6.66224 20.0825 5.985 19.8333C5.40645 19.6183 4.88399 19.2753 4.45667 18.83C4.03394 18.4115 3.70748 17.9058 3.5 17.3483C3.24982 16.6718 3.11571 15.9579 3.10333 15.2367V8.09667C3.11571 7.37546 3.24982 6.66153 3.5 5.985C3.71499 5.40645 4.05799 4.88399 4.50333 4.45667C4.92372 4.03623 5.42881 3.71011 5.985 3.5C6.66224 3.25081 7.37535 3.11291 8.09667 3.09167H15.2367C15.958 3.11291 16.6711 3.25081 17.3483 3.5C17.9269 3.71499 18.4493 4.05799 18.8767 4.50333C19.2994 4.92187 19.6258 5.42749 19.8333 5.985C20.0825 6.66224 20.2204 7.37535 20.2417 8.09667V11.6667C20.2417 14.07 20.3233 14.315 20.2883 15.2367V15.2483ZM18.4217 6.56833C18.2828 6.19148 18.0638 5.84925 17.7798 5.56525C17.4957 5.28125 17.1535 5.06224 16.7767 4.92333C16.2592 4.74397 15.7142 4.65709 15.1667 4.66667H8.16667C7.61631 4.67205 7.07125 4.77474 6.55667 4.97C6.18558 5.1026 5.84697 5.31266 5.56335 5.58623C5.27972 5.8598 5.05757 6.19061 4.91167 6.55667C4.74224 7.07626 4.65947 7.62019 4.66667 8.16667V15.1667C4.67823 15.7164 4.78073 16.2604 4.97 16.7767C5.10891 17.1535 5.32792 17.4957 5.61192 17.7798C5.89592 18.0638 6.23815 18.2828 6.615 18.4217C7.11278 18.6047 7.63659 18.7071 8.16667 18.725H15.1667C15.717 18.7196 16.2621 18.6169 16.7767 18.4217C17.1535 18.2828 17.4957 18.0638 17.7798 17.7798C18.0638 17.4957 18.2828 17.1535 18.4217 16.7767C18.6169 16.2621 18.7196 15.717 18.725 15.1667V8.16667C18.7253 7.61576 18.6225 7.06968 18.4217 6.55667V6.56833ZM11.6667 16.1233C11.082 16.1233 10.503 16.008 9.96294 15.7839C9.42288 15.5598 8.93235 15.2313 8.51944 14.8173C8.10654 14.4033 7.77936 13.9119 7.55667 13.3713C7.33397 12.8306 7.22013 12.2514 7.22167 11.6667C7.22167 10.7847 7.48335 9.92261 7.97357 9.18947C8.46379 8.45632 9.16052 7.88511 9.97555 7.54814C10.7906 7.21117 11.6873 7.1236 12.5521 7.29651C13.4169 7.46942 14.211 7.89503 14.8338 8.51947C15.4566 9.14392 15.8801 9.93911 16.0508 10.8044C16.2214 11.6697 16.1315 12.5661 15.7924 13.3803C15.4533 14.1944 14.8803 14.8896 14.1458 15.3779C13.4114 15.8662 12.5486 16.1256 11.6667 16.1233ZM16.3333 8.085C16.0754 8.0577 15.8368 7.93592 15.6633 7.74313C15.4898 7.55034 15.3939 7.30017 15.3939 7.04083C15.3939 6.78149 15.4898 6.53133 15.6633 6.33853C15.8368 6.14574 16.0754 6.02397 16.3333 5.99667C16.5912 6.02397 16.8299 6.14574 17.0034 6.33853C17.1768 6.53133 17.2728 6.78149 17.2728 7.04083C17.2728 7.30017 17.1768 7.55034 17.0034 7.74313C16.8299 7.93592 16.5912 8.0577 16.3333 8.085Z" fill="black"/>
</svg>
