<svg width="250" height="250" viewBox="0 0 250 250" fill="none" xmlns="http://www.w3.org/2000/svg">
<path fill-rule="evenodd" clip-rule="evenodd" d="M77.1302 180.801C112.781 175.593 137.328 176.041 173.026 180.984C175.611 181.358 177.974 182.656 179.677 184.637C181.38 186.617 182.309 189.148 182.292 191.76C182.292 194.26 181.432 196.687 179.88 198.583C177.175 201.888 174.404 205.139 171.568 208.333H185.323C186.188 207.301 187.057 206.249 187.938 205.182C191.027 201.393 192.712 196.653 192.708 191.765C192.708 181.218 185.01 172.13 174.453 170.671C137.911 165.614 112.37 165.13 75.625 170.499C64.9584 172.057 57.2917 181.286 57.2917 191.906C57.2917 196.619 58.8281 201.281 61.7396 205.057C62.599 206.171 63.4479 207.265 64.2917 208.338H77.7136C75.0751 205.179 72.5017 201.967 69.9948 198.702C68.505 196.748 67.7014 194.358 67.7084 191.9C67.7084 186.291 71.7396 181.588 77.1302 180.801ZM125 130.208C129.104 130.208 133.167 129.399 136.959 127.829C140.75 126.258 144.195 123.957 147.097 121.055C149.999 118.153 152.301 114.708 153.871 110.917C155.442 107.125 156.25 103.061 156.25 98.9577C156.25 94.8539 155.442 90.7903 153.871 86.9988C152.301 83.2074 149.999 79.7624 147.097 76.8606C144.195 73.9588 140.75 71.6569 136.959 70.0864C133.167 68.516 129.104 67.7077 125 67.7077C116.712 67.7077 108.763 71.0001 102.903 76.8606C97.0424 82.7211 93.75 90.6697 93.75 98.9577C93.75 107.246 97.0424 115.194 102.903 121.055C108.763 126.915 116.712 130.208 125 130.208ZM125 140.624C136.051 140.624 146.649 136.234 154.463 128.42C162.277 120.606 166.667 110.008 166.667 98.9577C166.667 87.907 162.277 77.3089 154.463 69.4949C146.649 61.6809 136.051 57.291 125 57.291C113.949 57.291 103.351 61.6809 95.5372 69.4949C87.7232 77.3089 83.3334 87.907 83.3334 98.9577C83.3334 110.008 87.7232 120.606 95.5372 128.42C103.351 136.234 113.949 140.624 125 140.624Z" fill="black"/>
<path fill-rule="evenodd" clip-rule="evenodd" d="M125 218.75C176.776 218.75 218.75 176.776 218.75 125C218.75 73.2236 176.776 31.2497 125 31.2497C73.224 31.2497 31.25 73.2236 31.25 125C31.25 176.776 73.224 218.75 125 218.75ZM125 229.166C182.531 229.166 229.167 182.531 229.167 125C229.167 67.4684 182.531 20.833 125 20.833C67.4688 20.833 20.8333 67.4684 20.8333 125C20.8333 182.531 67.4688 229.166 125 229.166Z" fill="black"/>
</svg>
